<?xml version="1.0" encoding="utf-8"?>
<!-- Generator: Adobe Illustrator 27.3.1, SVG Export Plug-In . SVG Version: 6.00 Build 0)  -->
<svg version="1.1" id="Layer_1" xmlns="http://www.w3.org/2000/svg" xmlns:xlink="http://www.w3.org/1999/xlink" x="0px" y="0px"
	 viewBox="0 0 8762.7 1980.3" style="enable-background:new 0 0 8762.7 1980.3;" xml:space="preserve">
<style type="text/css">
	.st0{fill:#FFDA00;}
	.st1{fill:#30346B;}
</style>
<g>
	<g id="Octogon_00000055691441322506859590000004738072988748899733_">
		<path class="st0" d="M1866.7,695.1c-10-3.7-20-7.7-29.9-11.7c-244.1-100.2-439.2-295.3-539.4-539.4c-3.9-9.5-7.7-19.1-11.3-28.8
			h-0.1C1252.6,49,1133,0,990.7,0S728.9,49,695.5,115.2h-0.2c-3.6,9.7-7.4,19.3-11.3,28.8c73.2,197.6,177.4,380.1,306.8,541.6
			c8.4,10.5,17,21,25.6,31.3c8.6,10.3,17.4,20.6,26.2,30.8c0,0,0.1,0.1,0.1,0.1c5.2,5.9,10.4,11.8,15.6,17.7
			c15.7,17.6,31.7,34.9,48,51.9c0,0,0,0,0,0c40.5,42.2,82.8,82.5,126.8,120.9c0,0,0,0,0,0c20.3,17.7,41.1,35,62.1,51.9
			c-69.4,55.6-135,115.9-196.1,180.3c-22.5,18.8-48.7,35.4-56.5,29.7l13.8,16.7h0l12.3,15.3c118.4,147.7,215.1,310,288.3,483.2
			c108.9-187.3,277.5-335.5,479.8-418.5c9.9-4.1,19.8-8,29.9-11.7c65.9-33.8,114.7-153.1,114.7-295
			C1981.4,848.2,1932.7,729,1866.7,695.1z"/>
		<path class="st0" d="M965.1,1263.4c-8.6-10.3-17.4-20.6-26.2-30.8c0,0-0.1-0.1-0.1-0.1c-5.2-5.9-10.4-11.8-15.6-17.7
			c-15.7-17.6-31.7-34.9-48-51.9c0,0,0,0,0,0c-40.5-42.2-82.8-82.5-126.8-120.9c0,0,0,0,0,0c-20.3-17.7-41.1-35-62.1-51.9
			c68.6-55,133.5-114.5,194-178.1c22.6-19.5,49.8-36.9,57.9-31l-13.1-17.7h0l-12.3-15.3c-118.4-147.7-215.1-310-288.3-483.2
			C515.5,452.2,346.8,600.4,144.5,683.4c-9.9,4.1-19.8,8-29.9,11.7C48.7,729,0,848.2,0,990.2c0,141.9,48.7,261.2,114.7,295
			c10,3.7,20,7.7,29.9,11.7c244.1,100.2,439.2,295.3,539.4,539.4c3.9,9.5,7.7,19.1,11.3,28.8h0.1c33.5,66.2,153,115.2,295.3,115.2
			s261.8-49,295.3-115.2h0.2c3.6-9.7,7.4-19.3,11.3-28.8c-73.2-197.6-177.4-380.1-306.8-541.6
			C982.2,1284.2,973.7,1273.8,965.1,1263.4z"/>
	</g>
	<g>
		<g>
			<path class="st1" d="M2951.1,832.3c0,155.5-99.6,265-268.3,265h-169.7V1371h-150V568.4h150H2684
				C2850.4,568.4,2951.1,670.2,2951.1,832.3z M2793.5,829c0-65.7-40.5-128.1-136.9-128.1h-143.4v266.1h142.3
				C2752.9,966.9,2793.5,902.3,2793.5,829z"/>
			<path class="st1" d="M3266.2,812.5c170.8,0,283.6,118.3,283.6,285.8c0,168.6-112.8,285.8-283.6,285.8
				c-170.8,0-284.7-117.2-284.7-285.8C2981.5,930.8,3095.3,812.5,3266.2,812.5z M3266.2,1256c84.3,0,140.2-64.6,140.2-157.7
				s-55.8-157.7-140.2-157.7c-85.4,0-140.2,64.6-140.2,157.7S3180.8,1256,3266.2,1256z"/>
			<path class="st1" d="M3638.3,553h143.4v818h-143.4V553z"/>
			<path class="st1" d="M4430.6,827.9L4170,1499.1c-66.8,173-207,152.2-311,113.9l38.3-129.2c59.1,36.1,129.2,39.4,155.5-35l17.5-46
				l-232.1-574.9h151.1l147.8,392l144.5-392H4430.6z"/>
			<path class="st1" d="M5496,568.4V1371h-147.8l-366.8-565v565h-148.9V568.4h148.9l366.8,565v-565H5496z"/>
			<path class="st1" d="M6017.5,1371c-4.4-14.2-7.7-33.9-9.9-54.8c-32.9,47.1-89.8,69-156.6,69c-101.8,0-224.5-46-224.5-226.7V827.9
				h143.4v302.2c0,111.7,72.3,128.1,111.7,128.1c47.1,0,122.6-25.2,122.6-129.2V827.9h143.4v442.4c0,26.3,4.4,75.6,11,100.7H6017.5z
				"/>
			<path class="st1" d="M6519.6,811.4c128.1,0,223.4,70.1,252.9,169.7l-122.6,49.3c-17.5-54.8-67.9-89.8-128.1-89.8
				c-86.5,0-139.1,63.5-139.1,158.8c0,98.5,55.8,156.6,139.1,156.6c61.3,0,111.7-33.9,130.3-86.5l120.5,44.9
				c-35,105.1-134.7,170.8-254,170.8c-167.5,0-279.2-113.9-279.2-285.8C6239.3,926.4,6350.9,811.4,6519.6,811.4z"/>
			<path class="st1" d="M6855.7,553h143.4v818h-143.4V553z"/>
			<path class="st1" d="M7628.3,1149.8h-409.5c8.8,81,72.3,113.9,138,113.9s107.3-30.7,131.4-77.7l118.3,47.1
				c-39.4,95.3-135.8,152.2-249.7,152.2c-161,0-272.7-113.9-272.7-285.8c0-170.8,109.5-288,274.8-288c162.1,0,269.4,113.9,269.4,288
				V1149.8z M7221,1051.3h261.7c-5.5-82.1-55.8-121.5-125.9-121.5C7282.3,929.7,7234.1,972.4,7221,1051.3z"/>
			<path class="st1" d="M8102,1371c-4.4-14.2-7.7-33.9-9.9-54.8c-32.9,47.1-89.8,69-156.6,69c-101.8,0-224.5-46-224.5-226.7V827.9
				h143.4v302.2c0,111.7,72.3,128.1,111.7,128.1c47.1,0,122.6-25.2,122.6-129.2V827.9h143.4v442.4c0,26.3,4.4,75.6,11,100.7H8102z"
				/>
			<path class="st1" d="M8541.5,1271.3c43.8,0,77.7-16.4,77.7-54.8c0-28.5-18.6-43.8-52.6-52.6l-72.3-19.7
				c-117.2-30.7-157.7-88.7-157.7-159.9c0-97.5,74.5-173,205.9-173c107.3,0,191.6,51.5,208.1,143.4l-128.1,29.6
				c-4.4-37.2-35-58-75.6-58c-41.6,0-70.1,20.8-70.1,55.8c0,26.3,17.5,42.7,61.3,54.8l71.2,18.6c99.6,26.3,153.3,81,153.3,161
				c0,99.6-78.8,168.6-219,168.6c-135.8,0-209.1-65.7-222.3-154.4l131.4-21.9C8455,1247.3,8489,1271.3,8541.5,1271.3z"/>
		</g>
	</g>
</g>
</svg>
